<svg xmlns="http://www.w3.org/2000/svg" xmlns:xlink="http://www.w3.org/1999/xlink" width="80" height="80" fill="none" xmlns:v="https://vecta.io/nano"><path d="M42.237.389l2.907.032c7.334.171 11.677 5.719 16.044 10.878l6.318 7.476c1.274 1.504 2.106 3.337 2.408 5.28l2.289 14.743 7.01 16.587c.438 1.031.573 2.166.389 3.271l-1.422 8.658c-.698 4.186-1.531 5.756-3.785 6.244-7.802 1.696-13.947 2.438-21.534 3.677l-14.256 2.338c-1.918.264-3.042-.653-4.785-1.433-4.014-1.802-8.384-2.816-12.781-2.934-1.31-.033-2.635.006-3.915-.265-1.153-.24-7.788-3.399-9.98-4.59-1.78-.969-6.85-8.32-7.023-10.256-.192-2.131.524-17.019.918-20.208S9.441 25.554 13.12 19.562l6.821-11.118c1.97-3.214 3.014-6.799 7.279-7.254C32.215.647 37.224.385 42.237.389h0z" fill="url(#A)"/><path d="M19.95 8.44L13.13 19.558l-4.505 6.955c2.994-.932 6.787-2.613 9.781-3.545.646-.202 1.315-.403 1.984-.291.712.123 1.306.579 1.871 1.031 1.859 1.464 4.076 2.579 5.936 4.043.672-3.884 2.547-12.693 3.021-13.282.524-.653 1.314-1.029 2.079-1.384 5.587-2.575 10.821-4.221 16.83-5.451.708-.145 1.438-.288 2.15-.149.67.129 1.262.498 1.834.859 1.431.891 5.454 3.228 9.019 5.245l-1.937-2.295C56.822 6.14 52.479.592 45.142.428L42.235.396a137.41 137.41 0 0 0-14.999.793c-4.268.445-5.315 4.037-7.286 7.251z" fill="url(#B)"/><path d="M74.301 73.579c1.301-.409 1.788-2.079.974-4.397l-3.449-8.555a1.98 1.98 0 0 0-1.173-1.133l-12.488-4.553c-.418-.154-.865-.165-1.287-.031-3.383 1.08-18.498 3.553-19.421 5.742-.92 2.182 5.938 9.598 5.072 11.522-.146.329-.982 2.015-2.21 3.488-1.141 1.376.758 2.912 2.427 3.239l10.117-1.665c7.554-1.238 13.684-1.979 21.439-3.655h0z" fill="url(#C)"/><path d="M62.041 35.381c-.601 2.349-2.46 10.25-2.503 11.867-.078 3.159 3.446 7.474 5.217 10.089 0 0-8.173-2.836-11.048-4.7-2-1.297-12.691-7.527-14.794-10.111L28.196 27.751l18.039-7.339c1.532-.623 2.391-1.072 4.081-.814 3.864.588 9.694 1.151 12.727 2.434s-.049 9.649-1.002 13.35h0z" fill="url(#D)"/><path d="M72.178 58.681c1.368-.419 2.902-.049 4.06.788.966.701 2.094 3.809 2.443 4.81l.922-5.624a5.95 5.95 0 0 0-.389-3.271l-7.01-16.587-.026 19.883z" fill="url(#E)"/><path d="M21.043 75.199c3.3.09 6.569.674 9.698 1.732-.99-4.912-3.46-8.474-1.702-14.954.467-1.718 1.223-4.361 1.476-6.124.313-2.183-.367-4.615.604-7.676.685-2.18 3.066-7.403 1.555-7.107s-5.881 4.031-7.336 4.804c-2.048 1.108-4.241 1.896-6.456 2.605-1.159.367-3.688.583-4.786 1.617-.282.263-.467.591-.507.981-.076.68.155 1.349.373 1.997 2.102 6.28 3.28 12.835 3.495 19.457.022.706.057 1.472.515 2.011.204.236.532.438.906.604.719.032 1.442.034 2.166.053z" fill="url(#F)"/><path d="M17.128 74.934c.466.096.941.15 1.419.181-.342-.278-.668-.707-.847-1.409-.519-2.02.172-8.665-2.745-17.542-1.903-5.793-2.396-6.01-6.074-8.647-6.023-4.315-7.445-7.704-7.664-8.33-.077.257-.136.49-.159.691C.655 43.072-.052 57.956.14 60.087c.173 1.935 5.243 9.287 7.023 10.255 2.177 1.192 8.812 4.351 9.964 4.591h0z" fill="url(#G)"/><defs><linearGradient id="A" x1="66.26" y1="72.166" x2="1.566" y2="9.02" xlink:href="#H"><stop stop-color="#9e958e"/><stop offset=".46" stop-color="#8e8884"/><stop offset="1" stop-color="#757575"/></linearGradient><linearGradient id="B" x1="22.845" y1="-7.916" x2="40.393" y2="29.405" xlink:href="#H"><stop stop-color="#37474f"/><stop offset=".612" stop-color="#42565f" stop-opacity=".192"/><stop offset=".757" stop-color="#455a64" stop-opacity="0"/></linearGradient><linearGradient id="C" x1="32.769" y1="67.257" x2="75.989" y2="66.27" xlink:href="#H"><stop stop-color="#9e958e"/><stop offset=".442" stop-color="#aea298"/><stop offset="1" stop-color="#c9b8a9"/></linearGradient><linearGradient id="D" x1="25.131" y1="15.465" x2="58.25" y2="37.2" xlink:href="#H"><stop stop-color="#4c5c64"/><stop offset="1" stop-color="#455a64" stop-opacity="0"/></linearGradient><linearGradient id="E" x1="79.503" y1="41.904" x2="71.317" y2="61.148" xlink:href="#H"><stop stop-color="#4c5c64"/><stop offset="1" stop-color="#455a64" stop-opacity="0"/></linearGradient><linearGradient id="F" x1="29.665" y1="56.321" x2="10.622" y2="75.047" xlink:href="#H"><stop stop-color="#9e958e"/><stop offset=".25" stop-color="#aea298"/><stop offset=".566" stop-color="#c9b8a9"/></linearGradient><linearGradient id="G" x1="-6.068" y1="54.721" x2="14.243" y2="57.824" xlink:href="#H"><stop stop-color="#37474f"/><stop offset=".808" stop-color="#42565f" stop-opacity=".192"/><stop offset="1" stop-color="#455a64" stop-opacity="0"/></linearGradient><linearGradient id="H" gradientUnits="userSpaceOnUse"/></defs></svg>