<svg width="83" height="11" viewBox="0 0 83 11" fill="none" xmlns="http://www.w3.org/2000/svg">
<path d="M83 11L0 11V0L2.31999 0V8.55555L7.63998 8.55556V3.66667L9.95996 3.66667V8.55556H14.28V0L16.5999 0V8.55556H20.9199V3.66667L23.2399 3.66667V8.55556L27.5599 8.55556V0L29.8799 0V8.55556H34.1999V3.66666L36.5199 3.66666V8.55556L40.8399 8.55555L40.8399 2.7781e-06L43.1599 2.7781e-06L43.1599 8.55556L47.4798 8.55556V3.66667H49.7998V8.55556H54.1198V6.34245e-06L56.4398 6.34245e-06V8.55556L60.7598 8.55556V3.66667H63.0798V8.55556L67.3998 8.55556V6.34245e-06L69.7198 6.34245e-06V8.55556H74.0398V3.66667H76.3598V8.55556L80.6797 8.55556V6.34245e-06L82.9997 6.34245e-06L83 11Z" fill="#83959b" fill-opacity="0.5"/>
</svg>
